<svg width="375" height="812" viewBox="0 0 375 812" fill="none" xmlns="http://www.w3.org/2000/svg">
<g clip-path="url(#clip0)">
<path fill-rule="evenodd" clip-rule="evenodd" d="M186.627 1090.34L-392 818.671L186.627 547L765.254 818.671L186.627 1090.34ZM177.428 1085.17L177.947 1085.42L-208.307 818.671L177.947 551.925L177.428 552.169L-296.847 818.671L177.428 1085.17ZM167.284 1080.41L-390.19 818.671L167.284 556.932L-298.515 818.671L167.284 1080.41ZM-137.655 818.671L178.455 552.643L-206.759 818.671L178.455 1084.7L-137.655 818.671ZM180.377 1085.08L-136.19 818.671L180.378 552.259L-65.5142 818.671L180.377 1085.08ZM-64.119 818.671L182.204 1085.55L10.368 818.671L182.204 551.792L-64.119 818.671ZM184.003 1086.27L96.7449 818.671L184.003 551.075L11.7053 818.671L184.003 1086.27ZM98.04 818.671L185.347 1086.42L185.347 550.926L98.04 818.671ZM186.627 1086.73L282.924 818.671L186.627 550.614L186.627 1086.73ZM284.222 818.671L188.085 1086.28L372.965 818.671L188.085 551.058L284.222 818.671ZM190.472 1084.78L441.228 818.671L190.472 552.567L374.311 818.671L190.472 1084.78ZM442.628 818.671L192.304 1084.32L507.227 818.671L192.304 553.025L442.628 818.671ZM194.393 1083.79L570.966 818.671L194.393 553.551L508.692 818.671L194.393 1083.79ZM572.505 818.671L196.115 1083.66L636.945 818.671L196.115 553.68L572.505 818.671ZM198.772 554.301L700.667 818.671L198.772 1083.04L638.57 818.671L198.772 554.301ZM201.478 1082.52L763.443 818.671L201.478 554.823L702.382 818.671L201.478 1082.52Z" fill="url(#paint0_linear)"/>
<g opacity="0.36">
<path d="M-244 582.14L-109.697 482.133L-5.77138 505.829L-19.3616 426.707L-9.36879 317.865L20.7429 237.137L-12.5665 249.989L-49.7397 294.972L-57.3343 285.333L-82.9159 345.979L-75.7211 294.972L-47.7412 253.202L-24.5579 238.743L-86.1136 232.719L-172.451 280.111L-154.065 237.137L-94.5076 200.99L-47.7412 194.162L-98.5047 161.228L-152.066 150.785L-209.625 157.212L-133.28 110.22L-57.3343 117.048L-21.3602 142.351L-24.5579 132.31L-31.353 110.22L-53.7369 87.729L-24.5579 94.1552L-5.37167 112.229L7.41913 129.499L18.6111 147.974L9.41769 96.1633L-10.9677 56L27.005 82.1062L42.5938 121.466L45.3918 144.359L84.9633 105.401L146.119 90.5405L201.28 115.04L131.33 124.278L84.9633 167.252L37.3976 230.71L71.7728 195.768L95.3559 172.875L156.512 159.22L219.267 195.768L243.649 238.743L176.897 211.03L112.943 206.211L84.9633 217.055L104.949 243.161L124.535 296.98L108.546 345.979L100.552 292.16L65.7771 249.989L45.3918 240.35L20.6096 329.512V437.953L63.7786 523.903L312 580.131L50.1884 597L-169.254 593.787L-244 582.14Z" fill="white" fill-opacity="0.11"/>
<path d="M-109.697 482.133L-244 582.14L-169.254 593.787M-109.697 482.133L-169.254 593.787M-109.697 482.133L50.1884 597M-109.697 482.133L28.6039 532.337M-109.697 482.133L-5.77138 505.829M-169.254 593.787L50.1884 597M50.1884 597L28.6039 532.337M50.1884 597L312 580.131M28.6039 532.337L312 580.131M28.6039 532.337L63.7786 523.903M28.6039 532.337L-5.77138 505.829M28.6039 532.337L1.42344 450.404M-5.77138 505.829L-19.3616 426.708M312 580.131L63.7786 523.903M63.7786 523.903L20.6096 437.953M-19.3616 426.708L1.42344 450.404M-19.3616 426.708L-9.3688 317.865M1.42344 450.404L20.6096 437.953M1.42344 450.404V329.512M20.6096 437.953V329.512M20.6096 329.512H1.42344M20.6096 329.512L45.3918 240.35M1.42344 329.512L-9.3688 317.865M1.42344 329.512L37.3976 230.71M-9.3688 317.865L20.7429 237.137M37.3976 230.71L60.9806 223.079M37.3976 230.71L45.3918 240.35M37.3976 230.71L35.7987 214.244M37.3976 230.71L71.7728 195.768M37.3976 230.71L84.9633 167.252M37.3976 230.71L20.7429 237.137M45.3918 240.35L65.7771 249.989M65.7771 249.989L100.552 292.16M65.7771 249.989L78.9677 234.727M100.552 292.16L108.546 345.979M100.552 292.16L112.943 285.333M108.546 345.979L124.535 296.98M108.546 345.979L112.943 285.333M124.535 296.98L104.949 243.161M124.535 296.98L112.943 285.333M104.949 243.161L84.9633 217.055M104.949 243.161L78.9677 234.727M84.9633 217.055L60.9806 223.079M84.9633 217.055L112.943 206.211M60.9806 223.079L78.9677 234.727M78.9677 234.727L112.943 285.333M-12.5665 249.989L-49.7398 294.972L-57.3343 285.333M-12.5665 249.989L-57.3343 285.333M-12.5665 249.989L-24.5579 238.743M-12.5665 249.989L-47.7412 253.202M-12.5665 249.989L20.7429 237.137M-57.3343 285.333L-82.9159 345.979L-75.7211 294.972M-57.3343 285.333L-75.7211 294.972M-75.7211 294.972L-47.7412 253.202M-24.5579 238.743L-47.7412 253.202M-24.5579 238.743L35.7987 214.244M-24.5579 238.743L-86.1136 232.719M35.7987 214.244L84.9633 167.252M35.7987 214.244L45.3918 144.359M35.7987 214.244L52.9863 172.875M35.7987 214.244L25.4062 206.934M84.9633 167.252L52.9863 172.875M84.9633 167.252L78.9677 135.122M84.9633 167.252L131.33 124.278M52.9863 172.875L45.3918 144.359M52.9863 172.875L78.9677 135.122M45.3918 144.359L84.9633 105.401M45.3918 144.359L42.5938 121.466M84.9633 105.401L78.9677 135.122M84.9633 105.401L146.119 90.5405M78.9677 135.122L128.932 105.401M78.9677 135.122L131.33 124.278M128.932 105.401L146.119 90.5405M128.932 105.401L131.33 124.278M128.932 105.401L201.28 115.04M146.119 90.5405L201.28 115.04M131.33 124.278L201.28 115.04M112.943 206.211L71.7728 195.768M112.943 206.211L110.545 185.326M112.943 206.211L176.897 211.03M71.7728 195.768L110.151 185.432M71.7728 195.768L95.3559 172.875L156.512 159.22M110.545 185.326L179.295 191.929M110.545 185.326L110.151 185.432M219.267 195.768L243.649 238.743M219.267 195.768L179.295 191.929M219.267 195.768L156.512 159.22M243.649 238.743L179.295 191.929M243.649 238.743L176.897 211.03M179.295 191.929L176.897 211.03M110.151 185.432L156.512 159.22M11.816 197.375L-98.5047 161.228M11.816 197.375L-21.3602 142.351M11.816 197.375L27.005 157.212M11.816 197.375L13.8145 180.908M11.816 197.375L-57.3343 117.048M11.816 197.375L-52.138 147.974M11.816 197.375L-47.7412 194.162M11.816 197.375L-77.3199 214.244M11.816 197.375L25.4062 206.934M-98.5047 161.228L-52.138 147.974M-98.5047 161.228L-152.066 150.785M-98.5047 161.228L-123.687 132.31M-98.5047 161.228L-47.7412 194.162M-52.138 147.974L-123.687 132.31M-52.138 147.974L-57.3343 117.048M-123.687 132.31L-152.066 150.785M-123.687 132.31L-133.28 110.22M-123.687 132.31L-209.625 157.212M-152.066 150.785L-209.625 157.212M-209.625 157.212L-133.28 110.22M-133.28 110.22L-57.3343 117.048M-57.3343 117.048L-21.3602 142.351M-21.3602 142.351L-24.5579 132.31M-21.3602 142.351L13.8145 180.908M-24.5579 132.31L-31.353 110.22M-24.5579 132.31L-3.77282 139.54M-31.353 110.22L-53.7369 87.729M-31.353 110.22L-21.3602 105.401M-53.7369 87.729L-24.5579 94.1552M-53.7369 87.729L-21.3602 105.401M-24.5579 94.1552L-5.37167 112.229M-24.5579 94.1552L-21.3602 105.401M-5.37167 112.229L7.41913 129.499M-5.37167 112.229L-21.3602 105.401M7.41913 129.499L18.6111 147.974M7.41913 129.499L-3.77282 139.54M18.6111 147.974L15.8131 164.441M18.6111 147.974L9.41769 96.1633M18.6111 147.974L27.005 157.212M15.8131 164.441L-3.77282 139.54M15.8131 164.441L13.8145 180.908M-3.77282 139.54L-21.3602 105.401M9.41769 96.1633L-10.9676 56M9.41769 96.1633L20.6096 98.1715M-10.9676 56L27.005 82.1062M-10.9676 56L20.6096 98.1715M27.005 82.1062L42.5938 121.466M27.005 82.1062L20.6096 98.1715M42.5938 121.466L27.005 157.212M27.005 157.212L20.6096 98.1715M27.005 157.212L25.4062 206.934M-47.7412 194.162L-94.5075 200.99M-94.5075 200.99L-154.065 237.137M-94.5075 200.99L-77.3199 214.244M-154.065 237.137L-172.451 280.111M-154.065 237.137L-145.271 243.161M-172.451 280.111L-145.271 260.03M-172.451 280.111L-145.271 243.161M-172.451 280.111L-86.1136 232.719M-145.271 260.03V243.161M-145.271 260.03L-77.3199 214.244M-145.271 243.161L-77.3199 214.244M-77.3199 214.244L-86.1136 232.719" stroke="white" stroke-opacity="0.25"/>
</g>
<g opacity="0.36">
<path d="M697.023 -26.7665L586.876 27.2565L567.482 102.918L520.502 67.5596L446.26 37.6141L383.588 30.1964L403.122 12.7948L444.879 3.63755L441.146 -4.54025L489.22 -0.896939L453.586 -13.2936L417.003 -9.05111L399.816 1.21359L416.521 -40.9181L476.324 -81.3069L442.171 -83.7196L398.668 -57.0159L378.548 -28.8269L374.109 -72.9391L385.258 -111.341L408.733 -146.697L352.54 -112.686L331.536 -60.9081L335.961 -28.9896L330.493 -34.4367L318.382 -46.264L311.234 -68.3844L305.641 -47.217L310.983 -28.6602L317.945 -14.5401L326.228 -1.05837L295.563 -24.4037L276.235 -51.141L280.513 -17.6511L300.925 5.6914L314.899 15.1829L276.262 27.9209L246.088 62.7966L243.56 106.949L273.019 64.4593L316.548 48.6385L373.821 38.8972L339.542 49.5943L316.728 57.2943L287.339 92.5736L290.113 145.711L309.933 175.995L314.253 123.212L332.546 79.9213L348.986 65.3201L359.293 87.0885L387.783 117.879L425.056 123.872L392.681 100.636L376.867 63.8486L377.421 47.3354L443.8 61.0513L514.432 97.3742L555.946 154.295L509.385 334.886L608.112 169.923L679.56 25.8443L697.023 -26.7665Z" fill="white" fill-opacity="0.11"/>
<path d="M586.876 27.2565L697.023 -26.7665L679.559 25.8443M586.876 27.2565L679.559 25.8443M586.876 27.2565L608.112 169.923M586.876 27.2565L573.228 134.198M586.876 27.2565L567.482 102.918M679.559 25.8443L608.112 169.923M608.112 169.923L573.228 134.198M608.112 169.923L509.385 334.886M573.228 134.198L509.385 334.886M573.228 134.198L555.946 154.295M573.228 134.198L567.482 102.918M573.228 134.198L528.971 89.0417M567.482 102.918L520.502 67.5596M509.385 334.886L555.946 154.295M555.946 154.295L514.432 97.3742M520.502 67.5596L528.971 89.0417M520.502 67.5596L446.26 37.6141M528.971 89.0417L514.432 97.3742M528.971 89.0417L450.23 48.5483M514.432 97.3742L443.8 61.0513M443.8 61.0513L450.23 48.5483M443.8 61.0513L377.421 47.3354M450.23 48.5483L446.26 37.6141M450.23 48.5483L373.821 38.8972M446.26 37.6141L383.588 30.1964M373.821 38.8972L360.948 51.7093M373.821 38.8972L377.421 47.3354M373.821 38.8972L363.632 32.3396M373.821 38.8972L339.542 49.5943M373.821 38.8972L316.548 48.6385M373.821 38.8972L383.588 30.1964M377.421 47.3354L376.867 63.8486M376.867 63.8486L392.681 100.636M376.867 63.8486L362.506 67.3322M392.681 100.636L425.056 123.872M392.681 100.636L384.081 106.424M425.056 123.872L387.783 117.879M425.056 123.872L384.081 106.424M387.783 117.879L359.293 87.0885M387.783 117.879L384.081 106.424M359.293 87.0885L348.986 65.3201M359.293 87.0885L362.506 67.3322M348.986 65.3201L360.948 51.7093M348.986 65.3201L332.546 79.9213M360.948 51.7093L362.506 67.3322M362.506 67.3322L384.081 106.424M403.122 12.7948L444.879 3.63755L441.146 -4.54024M403.122 12.7948L441.146 -4.54024M403.122 12.7948L399.816 1.21359M403.122 12.7948L417.003 -9.05111M403.122 12.7948L383.588 30.1964M441.146 -4.54024L489.22 -0.896934L453.586 -13.2936M441.146 -4.54024L453.586 -13.2936M453.586 -13.2936L417.003 -9.05111M399.816 1.21359L417.003 -9.05111M399.816 1.21359L363.632 32.3396M399.816 1.21359L416.521 -40.918M363.632 32.3396L316.548 48.6385M363.632 32.3396L314.899 15.1829M363.632 32.3396L330.927 29.6836M363.632 32.3396L362.353 23.1187M316.548 48.6385L330.927 29.6836M316.548 48.6385L297.63 33.9689M316.548 48.6385L273.019 64.4593M330.927 29.6836L314.899 15.1829M330.927 29.6836L297.63 33.9689M314.899 15.1829L276.262 27.921M314.899 15.1829L300.925 5.6914M276.262 27.921L297.63 33.9689M276.262 27.921L246.088 62.7966M297.63 33.9689L261.527 56.5736M297.63 33.9689L273.019 64.4593M261.527 56.5736L246.088 62.7966M261.527 56.5736L273.019 64.4593M261.527 56.5736L243.56 106.949M246.088 62.7966L243.56 106.949M273.019 64.4593L243.56 106.949M332.546 79.9213L339.542 49.5943M332.546 79.9213L319.747 71.3629M332.546 79.9213L314.253 123.212M339.542 49.5943L319.948 71.1417M339.542 49.5943L316.728 57.2943L287.339 92.5735M319.747 71.3629L301.008 118.377M319.747 71.3629L319.948 71.1417M290.113 145.711L309.933 175.995M290.113 145.711L301.008 118.377M290.113 145.711L287.339 92.5735M309.933 175.995L301.008 118.377M309.933 175.995L314.253 123.212M301.008 118.377L314.253 123.212M319.948 71.1417L287.339 92.5735M360.682 11.0606L374.109 -72.9391M360.682 11.0606L335.961 -28.9896M360.682 11.0606L329.432 7.50585M360.682 11.0606L349.286 6.84729M360.682 11.0606L331.536 -60.9081M360.682 11.0606L349.938 -47.1631M360.682 11.0606L378.548 -28.8269M360.682 11.0606L401.541 -41.3759M360.682 11.0606L362.353 23.1187M374.109 -72.9391L349.938 -47.1631M374.109 -72.9391L385.258 -111.341M374.109 -72.9391L363.713 -99.0354M374.109 -72.9391L378.548 -28.8269M349.938 -47.1631L363.713 -99.0354M349.938 -47.1631L331.536 -60.9081M363.713 -99.0354L385.258 -111.341M363.713 -99.0354L352.54 -112.686M363.713 -99.0354L408.733 -146.697M385.258 -111.341L408.733 -146.697M408.733 -146.697L352.54 -112.686M352.54 -112.686L331.536 -60.9081M331.536 -60.9081L335.961 -28.9896M335.961 -28.9896L330.493 -34.4367M335.961 -28.9896L349.286 6.84729M330.493 -34.4367L318.382 -46.264M330.493 -34.4367L328.236 -18.4703M318.382 -46.264L311.234 -68.3844M318.382 -46.264L311.894 -41.3663M311.234 -68.3844L305.641 -47.217M311.234 -68.3844L311.894 -41.3663M305.641 -47.217L310.983 -28.6602M305.641 -47.217L311.894 -41.3663M310.983 -28.6602L317.945 -14.5401M310.983 -28.6602L311.894 -41.3663M317.945 -14.5401L326.228 -1.05837M317.945 -14.5401L328.236 -18.4703M326.228 -1.05837L337.891 2.63398M326.228 -1.05837L295.563 -24.4037M326.228 -1.05837L329.432 7.50585M337.891 2.63398L328.236 -18.4703M337.891 2.63398L349.286 6.84729M328.236 -18.4703L311.894 -41.3663M295.563 -24.4037L276.235 -51.141M295.563 -24.4037L293.12 -16.4376M276.235 -51.141L280.513 -17.6511M276.235 -51.141L293.12 -16.4376M280.513 -17.6511L300.925 5.6914M280.513 -17.6511L293.12 -16.4376M300.925 5.6914L329.432 7.50585M329.432 7.50585L293.12 -16.4376M329.432 7.50585L362.353 23.1187M378.548 -28.8269L398.668 -57.0159M398.668 -57.0159L442.171 -83.7196M398.668 -57.0159L401.541 -41.3759M442.171 -83.7196L476.324 -81.3069M442.171 -83.7196L443.148 -75.9711M476.324 -81.3069L454.135 -70.3209M476.324 -81.3069L443.148 -75.9711M476.324 -81.3069L416.521 -40.918M454.135 -70.3209L443.148 -75.9711M454.135 -70.3209L401.541 -41.3759M443.148 -75.9711L401.541 -41.3759M401.541 -41.3759L416.521 -40.918" stroke="white" stroke-opacity="0.25"/>
</g>
</g>
<defs>
<linearGradient id="paint0_linear" x1="187" y1="570" x2="160.065" y2="812.639" gradientUnits="userSpaceOnUse">
<stop stop-color="#2B2B2B"/>
<stop offset="1" stop-color="#2B2B2B" stop-opacity="0"/>
</linearGradient>
<clipPath id="clip0">
<rect width="375" height="812" fill="white"/>
</clipPath>
</defs>
</svg>
