<svg version="1" xmlns="http://www.w3.org/2000/svg" width="346.667" height="346.667" viewBox="0 0 260.000000 260.000000"><path d="M50.4 3.7c.8 2.1 3.3 8.7 5.6 14.8l4.2 11 .1 105.4v105.5l8.1 9.8 8 9.8 4.1-.5c2.2-.4 5.6-.9 7.5-1.1 4.3-.6 45.5-7.3 49-8 1.4-.2 4.3-.7 6.5-1 2.2-.3 5.3-1.2 6.9-2 1.6-.8 3.4-1.4 4-1.4.6 0 4.6-2.2 8.8-4.9 18.2-11.7 31.6-29.9 39.6-53.7 5.5-16.5 6.1-21.6 6.2-59.2V94l-8.7.5c-14.4.9-25 1.4-39.8 2.1-7.7.4-15.8.8-18 .9-2.2.2-5.6.3-7.6.4l-3.6.1-.1 28.1v28l13.6-.7c7.6-.3 15.4-.8 17.5-.9 3.2-.2 3.7.1 3.7 2 0 6.4-6 20.2-11.9 27.5-7.5 9.3-12.3 12.5-20.6 13.5-2.8.4-6 .8-7.3 1-3.7.6-20 1.8-21.9 1.6-.9-.1-1.1-16.5-.9-69.6.2-38.2.5-69.8.8-70.1.6-.5 9-.9 50.8-1.9 14-.4 29.1-.8 33.5-1 4.4-.2 11-.3 14.8-.4l6.7-.1V0H49.1l1.3 3.7z"/></svg>